<svg xmlns="http://www.w3.org/2000/svg" xmlns:xlink="http://www.w3.org/1999/xlink" width="1080" zoomAndPan="magnify" viewBox="0 0 810 809.999993" height="1080" preserveAspectRatio="xMidYMid meet" version="1.0">
    <rect width="100%" height="100%" fill="black" rx="50" ry="50" />
    <path fill="#ffffff" d="M 105.242188 158.34375 C 116.9375 171.699219 228.84375 293.570312 354.109375 429.632812 L 581.265625 678.386719 L 724.90625 678.386719 L 709.039062 659.1875 C 699.851562 649.167969 651.414062 595.746094 601.308594 540.652344 C 550.367188 485.558594 502.761719 432.136719 494.414062 422.953125 C 480.214844 405.425781 481.050781 403.753906 601.308594 272.703125 L 723.238281 139.976562 L 584.605469 134.96875 L 495.246094 229.296875 L 405.054688 323.621094 L 315.695312 229.296875 L 225.5 134.96875 L 155.351562 135.804688 L 84.367188 135.804688 Z M 105.242188 158.34375 " fill-opacity="1" fill-rule="nonzero"/>
    <path fill="#ffffff" d="M 192.933594 559.015625 L 87.707031 674.210938 L 155.351562 676.714844 C 233.019531 679.21875 225.5 684.226562 313.191406 586.5625 L 369.980469 523.957031 L 334.066406 483.890625 L 298.15625 444.65625 Z M 192.933594 559.015625 " fill-opacity="1" fill-rule="nonzero"/>
</svg>
